<mxfile host="app.diagrams.net" modified="2024-05-12T12:51:53.140Z" agent="Mozilla/5.0 (Windows NT 10.0; Win64; x64) AppleWebKit/537.36 (KHTML, like Gecko) Chrome/124.0.0.0 Safari/537.36 Edg/124.0.0.0" version="24.1.0" etag="ZbjzzyLxOWQYuS7h_FyD" type="github">
  <diagram name="Page-1" id="mTRJL62R7gBNC7Rwc5c9">
    <mxGraphModel>
      <root>
        <mxCell id="0" />
        <mxCell id="1" parent="0" />
      </root>
    </mxGraphModel>
  </diagram>
</mxfile>
